<?xml version="1.0" standalone="no"?>
<!DOCTYPE svg PUBLIC "-//W3C//DTD SVG 20010904//EN"
 "http://www.w3.org/TR/2001/REC-SVG-20010904/DTD/svg10.dtd">
<svg version="1.0" xmlns="http://www.w3.org/2000/svg"
 width="750.000000pt" height="750.000000pt" viewBox="0 0 750.000000 750.000000"
 preserveAspectRatio="xMidYMid meet">
<metadata>
Created by potrace 1.14, written by Peter Selinger 2001-2017
</metadata>
<g transform="translate(0.000000,750.000000) scale(0.100000,-0.100000)"
fill="#000000" stroke="none">
<path d="M0 3750 l0 -3750 3750 0 3750 0 0 3750 0 3750 -3750 0 -3750 0 0
-3750z m4531 2414 l29 -28 0 -305 0 -305 -27 -28 c-19 -20 -37 -28 -61 -28
-34 0 -72 15 -84 34 -4 6 -8 161 -8 344 l0 333 23 9 c37 16 96 4 128 -26z
m-1400 -829 c225 -226 229 -231 229 -272 0 -34 -5 -46 -31 -67 -19 -16 -43
-26 -63 -26 -28 0 -57 25 -259 228 -204 205 -227 231 -227 261 0 24 9 41 32
63 33 31 66 49 82 44 5 -1 112 -105 237 -231z m2939 220 c7 -8 19 -15 26 -15
18 0 54 -58 54 -87 0 -15 -72 -93 -229 -252 -258 -260 -257 -260 -324 -195
-65 63 -66 61 201 327 131 130 243 237 249 237 6 0 16 -7 23 -15z m-1490 -565
c116 -16 260 -52 253 -63 -4 -6 0 -8 11 -4 10 4 30 1 44 -7 15 -8 54 -25 87
-37 106 -41 231 -136 288 -219 17 -25 47 -65 68 -90 91 -110 212 -349 240
-474 18 -78 20 -111 15 -233 -4 -94 -13 -167 -27 -220 -12 -43 -23 -88 -26
-101 -10 -41 -37 -45 -79 -11 -22 17 -63 47 -92 66 -51 35 -52 36 -45 72 5 20
8 117 8 216 -1 158 -4 189 -24 255 -30 98 -109 227 -195 318 -78 82 -241 186
-381 243 -79 33 -83 33 -235 33 -117 0 -172 -5 -225 -18 -38 -10 -74 -22 -80
-26 -5 -3 -26 -13 -45 -20 -66 -26 -181 -102 -242 -160 l-62 -59 -103 54
c-146 77 -143 71 -80 145 88 105 291 241 422 283 57 19 198 44 312 56 110 12
120 12 193 1z m-1240 -548 c296 -53 475 -147 702 -368 110 -107 224 -248 273
-337 21 -38 43 -71 49 -73 7 -3 30 3 52 12 95 41 403 26 565 -27 81 -27 84
-28 203 -108 106 -70 241 -209 293 -300 15 -25 44 -72 65 -104 156 -232 171
-579 39 -847 -56 -113 -145 -236 -232 -323 -76 -75 -102 -94 -186 -133 -131
-62 -210 -91 -307 -115 -79 -19 -117 -20 -1480 -19 -883 0 -1405 4 -1417 10
-10 6 -30 10 -46 10 -42 0 -330 157 -414 225 -39 33 -89 83 -111 111 -48 65
-103 192 -130 304 -37 154 -20 357 41 478 65 129 247 343 346 407 66 43 68 46
89 140 28 125 74 263 116 347 86 173 231 358 350 447 19 14 43 33 52 42 31 27
210 125 283 154 39 15 129 43 200 61 128 34 132 34 310 30 121 -3 218 -11 295
-24z m3445 -528 c13 -28 14 -41 6 -66 -25 -71 -11 -68 -353 -68 -366 0 -368 0
-368 88 0 87 -24 82 359 82 l339 0 17 -36z"/>
<path d="M2873 4236 c-215 -41 -413 -146 -574 -306 -174 -172 -245 -317 -330
-670 -18 -74 -34 -147 -35 -162 -1 -16 -2 -32 -3 -37 0 -5 -18 -11 -38 -15
-72 -11 -143 -54 -210 -124 -106 -111 -157 -244 -157 -407 1 -157 54 -288 163
-395 79 -79 151 -122 246 -147 66 -17 135 -18 1345 -13 l1275 5 -1140 5 -1140
6 1225 1 c1081 1 1233 3 1293 17 70 16 252 87 297 115 180 112 292 329 293
571 1 138 -13 192 -87 330 -49 93 -76 130 -138 191 -127 125 -215 176 -360
205 -59 12 -105 15 -164 10 -85 -6 -283 -59 -386 -102 -31 -13 -59 -24 -61
-24 -3 0 -8 32 -12 72 -9 94 -26 142 -87 247 -28 47 -65 111 -82 141 -44 76
-214 244 -319 314 -103 68 -228 124 -347 156 -108 28 -355 37 -467 16z"/>
</g>
</svg>
